Coordinates
version=1
nRows=17
nColumns=24
inDegrees=yes

Units are S.I. units (second, meters, Newtons, ...)
Angles are in degrees.

endheader
time	pelvis_tilt	pelvis_list	pelvis_rotation	pelvis_tx	pelvis_ty	pelvis_tz	hip_flexion_r	hip_adduction_r	hip_rotation_r	knee_angle_r	ankle_angle_r	subtalar_angle_r	mtp_angle_r	hip_flexion_l	hip_adduction_l	hip_rotation_l	knee_angle_l	ankle_angle_l	subtalar_angle_l	mtp_angle_l	lumbar_extension	lumbar_bending	lumbar_rotation
      1.01233333	      0.73429303	     -2.22763062	     -6.42419612	     -0.18370739	      0.88741708	      0.33030937	    -17.61672582	      6.47591006	      5.66700818	    -11.20283404	     19.69157451	     11.47234106	      7.88320971	     27.32530537	     -4.03032270	    -12.48256805	     -6.92537695	      5.49627454	      0.30458397	     -0.59081002	     -6.82638536	      3.06947226	     11.62917099
      1.01650000	      0.71480170	     -2.16095195	     -6.47345914	     -0.17788866	      0.88645861	      0.33024417	    -17.72254311	      6.32762504	      5.45800078	    -11.75424139	     19.74825095	     11.87203715	      8.27788205	     27.40847924	     -3.89828848	    -12.37298359	     -7.40000984	      5.45647748	      0.35318487	     -0.47129591	     -6.80528110	      2.89277314	     11.62930575
      1.02066667	      0.76411687	     -2.07191219	     -6.49374253	     -0.17197570	      0.88564974	      0.33015840	    -17.92434376	      6.15262699	      5.22934351	    -12.25137859	     19.64850278	     12.19255964	     11.10612962	     27.37503066	     -3.71385616	    -12.15816145	     -7.85238555	      5.42847834	      0.27797303	      0.47600820	     -6.86732407	      2.66116879	     11.66499257
      1.02483333	      0.66334472	     -2.01682638	     -6.52159199	     -0.16609347	      0.88465597	      0.33014071	    -17.92873122	      6.04952232	      5.11358809	    -12.83771198	     19.57664897	     12.34668684	     11.18784915	     27.54801733	     -3.60192881	    -11.96912589	     -8.45632033	      5.38306106	      0.26995615	      0.51519090	     -6.71738681	      2.48178739	     11.61652952
      1.02900000	      0.63131213	     -1.92338368	     -6.53848368	     -0.16012498	      0.88381151	      0.33007263	    -17.98591196	      5.88524625	      4.88154005	    -13.45990487	     19.49263849	     12.68657528	     11.33564974	     27.61620364	     -3.43201243	    -11.78329829	     -9.04949693	      5.29124727	      0.18351903	      0.57873955	     -6.65945467	      2.25158896	     11.58058173
      1.03316667	      0.60589236	     -1.82330477	     -6.56245878	     -0.15413233	      0.88303205	      0.33000992	    -18.02750787	      5.70982161	      4.65725057	    -14.12635336	     19.40521271	     13.03494252	     11.61145162	     27.66272496	     -3.25487649	    -11.59232426	     -9.65414137	      5.09000019	     -0.04040745	      0.68884192	     -6.60769614	      2.02389588	     11.53782026
      1.03733333	      0.55951549	     -1.71672681	     -6.56776789	     -0.14806863	      0.88228780	      0.32995037	    -18.04412673	      5.54019866	      4.45454130	    -14.79297766	     19.16081936	     13.26827039	     11.86992475	     27.71447357	     -3.06442865	    -11.35186730	    -10.26201178	      4.90209968	     -0.25623008	      0.78869668	     -6.50988671	      1.75848502	     11.49648738
      1.04150000	      0.54240372	     -1.60706133	     -6.57763368	     -0.14199454	      0.88164664	      0.32988359	    -18.06898271	      5.36089445	      4.26399688	    -15.49186043	     18.81578428	     13.40592688	     15.79805866	     27.71729854	     -2.86163144	    -11.07848623	    -10.85542459	      4.56438330	     -0.74483320	      2.26440770	     -6.46417934	      1.51412336	     11.44940705
      1.04566667	      0.49610254	     -1.48938924	     -6.57745003	     -0.13588037	      0.88099700	      0.32980915	    -18.01877770	      5.17454961	      4.00764560	    -16.28673398	     18.56847356	     13.72599438	     15.89723474	     27.77728215	     -2.66768465	    -10.90088130	    -11.53435195	      4.29856329	     -0.98879655	      2.30672332	     -6.37327943	      1.24637137	     11.36679512
      1.04983333	      0.43378503	     -1.36785838	     -6.57270484	     -0.12974021	      0.88039382	      0.32972933	    -17.92896961	      4.98894246	      3.77874523	    -17.11856534	     18.23504975	     13.97270133	     16.08856902	     27.83343124	     -2.45845309	    -10.63910021	    -12.18160145	      3.95120949	     -1.44003370	      2.36769482	     -6.25426793	      0.97755901	     11.29208255
      1.05400000	      0.40592596	     -1.21762071	     -6.57017175	     -0.12354874	      0.87991111	      0.32962310	    -17.84106545	      4.75890167	      3.51554201	    -18.00761928	     17.82757836	     14.24408422	     16.58680092	     27.81652564	     -2.20298107	    -10.32684431	    -12.76923394	      3.59497145	     -2.04265600	      2.50878115	     -6.17871565	      0.66565207	     11.19990272
      1.05816667	      0.29885547	     -1.11006799	     -6.54657510	     -0.11738372	      0.87935197	      0.32952955	    -17.63906367	      4.60036976	      3.29931751	    -18.95205544	     17.38950259	     14.42463210	     16.96329742	     27.94456625	     -2.01753608	    -10.08353730	    -13.48743497	      3.18120236	     -2.50812774	      2.59981076	     -6.00016979	      0.42207134	     11.11078057
      1.06233333	      0.25775543	     -0.96612240	     -6.51944885	     -0.11112589	      0.87897975	      0.32941265	    -17.49353066	      4.38493223	      3.04457205	    -19.89290489	     16.70650277	     14.53757706	     21.55057379	     27.95575301	     -1.77406771	     -9.80570559	    -14.12215980	      2.76210777	     -3.08935459	      3.67393833	     -5.89362949	      0.10707823	     11.02706912
      1.06650000	      0.15813191	     -0.84518393	     -6.49719604	     -0.10492109	      0.87855337	      0.32929066	    -17.21621961	      4.19715221	      2.79690901	    -20.97629667	     16.15299311	     14.77443798	     21.65026865	     28.06691688	     -1.57515314	     -9.56279224	    -14.84319543	      2.38911029	     -3.59763066	      3.69209034	     -5.72782615	     -0.15304408	     10.91932265
      1.07066667	      0.10053467	     -0.69034873	     -6.46999133	     -0.09865735	      0.87826431	      0.32913777	    -16.95551434	      3.95902446	      2.51845823	    -22.09517932	     15.51293475	     15.02584266	     21.98774525	     28.09930557	     -1.31885456	     -9.25815304	    -15.50049457	      2.01095292	     -4.30334359	      3.73791935	     -5.60051968	     -0.47776894	     10.80528660
      1.07483333	     -0.01706686	     -0.57104719	     -6.43433124	     -0.09241150	      0.87794682	      0.32901525	    -16.59471197	      3.77675413	      2.29723282	    -23.26770584	     14.74158415	     15.18263873	     22.18682471	     28.23263938	     -1.12967584	     -9.02448242	    -16.24431833	      1.67894007	     -4.71079473	      3.75745491	     -5.40324126	     -0.75779969	     10.71528821
      1.07900000	     -0.07508042	     -0.43358531	     -6.40679915	     -0.08617940	      0.87777419	      0.32881024	    -16.23736926	      3.54019503	      2.00197055	    -24.52680962	     13.90824293	     15.35952782	     26.53186605	     28.27413322	     -0.89310633	     -8.72308925	    -16.92650832	      1.29118013	     -5.45803613	      4.14915770	     -5.29453182	     -1.01473378	     10.59083638
